<?xml version="1.0" encoding="utf-8"?>
<!-- Svg Vector Icons : http://www.onlinewebfonts.com/icon -->
<!DOCTYPE svg PUBLIC "-//W3C//DTD SVG 1.1//EN" "http://www.w3.org/Graphics/SVG/1.1/DTD/svg11.dtd">
<svg version="1.1" xmlns="http://www.w3.org/2000/svg" xmlns:xlink="http://www.w3.org/1999/xlink" x="0px" y="0px" viewBox="0 0 1000 1000" enable-background="new 0 0 1000 1000" xml:space="preserve">
<metadata> Svg Vector Icons : http://www.onlinewebfonts.com/icon </metadata>
<g><g><path d="M757.7,294.4c-46.2-24.1-102.6-28.6-150.1-14.5c-39.7,11.7-74.2,33.7-99.8,63.3c-0.5,0.1-1.1,0.1-1.6,0.2c0.4,0.2,0.6,0.4,1,0.7c-0.5,0.6-1.1,1.3-1.5,1.9c-0.2-0.3-0.4-0.5-0.6-0.7c1.4-2.9,3.2-5.6,4.7-8.4c31.3-31.2,61.8-57.3,93.5-76.3c32.8-19.7,65.9-30.3,100.9-32.8c35-2.5,72.4,2.9,111.6,12.8c39.3,9.6,79.6,24,124.7,35.9c-25-39.3-59.1-71.1-99.9-95.1c-40.7-23.5-90.2-38.9-142.3-35c-52.1,3.3-102.8,28.6-136.1,65.1c-10.6,11.7-19.8,24.2-27.7,37.4c0.7-7.8,1.8-15.6,1.7-23.6c-0.2-49.5-21-102.2-57.4-139.4C442.5,48,395.5,26.3,349.5,16.5c-46.4-9.6-93-8.8-137.9,3.7c41.5,21.3,81,37.6,116.7,56.9c35.7,18.9,67.2,39.9,91.4,65.1c24.3,25.2,41.8,55.3,53,91.9c9,29.3,14.1,61.7,16.9,97.1c-7.3-36.1-25.1-70.3-51.1-99.2c-33-36.9-83.5-62.6-135.4-66.3c-51.9-4.3-101.6,10.6-142.5,33.7c-41.1,23.6-75.4,55.2-100.8,94.2c45.2-11.5,85.6-25.5,125-34.8c39.2-9.5,76.7-14.6,111.6-11.8c34.9,2.7,67.9,13.6,100.5,33.6c17,10.3,33.6,22.9,50.2,37c-17.5-1.8-36.2,1.3-52.1,9.7c-21.2,10.7-36.8,28.3-47.1,47c-10.2,18.9-16,39.2-16.5,60.4c14.7-15.2,27-30.2,40.1-43.2c12.9-13,26.1-23.9,40.3-31.2c14.1-7.2,29.5-10.9,46.9-10.9c7.1-0.1,14.5,0.8,22.1,1.8c-15.2,20.7-29.2,42.4-41.8,64.8c-29.3,52.4-52.7,108.2-72.2,165.2c-19.5,57-35.2,115.3-48,174.3C306,814.9,304.5,926.8,298.1,990l136-0.1c-5.1-53.6-15.2-165.9-14.2-222.2c1.1-57,5.1-114.1,12.8-170.6c7.8-56.6,19.3-112.8,37.2-167.3c7.8-23.6,17.2-46.9,27.8-69.6c4.7-1.1,9.2-2.1,13.8-3.2c1.1,0.3,2.2,0.4,3.4,0.7c-0.3-0.4-0.6-0.8-1-1.2c2.9-0.7,5.9-1.4,8.8-2c10.8,7.3,20.8,14.8,29,23.1c12.2,12.2,20.5,25.7,25.4,40.9c4.9,15.1,6.6,32.2,6.5,50.6c0.1,18.4-1.9,37.6-2.2,58.8c14.6-15.4,24.9-33.8,31.1-54.4c5.9-20.5,7.3-44-0.1-66.5c-7.1-22.6-23.7-42.1-43.5-52.8c-4.2-2.3-8.6-4.1-13-5.8c21.3-3.4,41.7-5.2,61.5-5.1c38.3,0,72.1,8.1,103.3,24.1c31.2,15.9,60.4,39.9,88.8,68.6c28.7,28.6,55.8,61.7,88.2,95.2c-1.1-46.6-13.8-91.4-36.4-133.1C838.6,356.7,804.2,318,757.7,294.4z"/></g><g></g><g></g><g></g><g></g><g></g><g></g><g></g><g></g><g></g><g></g><g></g><g></g><g></g><g></g><g></g></g>
</svg>