<?xml version="1.0" encoding="utf-8"?>
<!-- Generator: Adobe Illustrator 16.0.0, SVG Export Plug-In . SVG Version: 6.00 Build 0)  -->
<!DOCTYPE svg PUBLIC "-//W3C//DTD SVG 1.1//EN" "http://www.w3.org/Graphics/SVG/1.1/DTD/svg11.dtd">
<svg version="1.1" id="Layer_1" xmlns="http://www.w3.org/2000/svg" xmlns:xlink="http://www.w3.org/1999/xlink" x="0px" y="0px"
	 width="700px" height="1003px" viewBox="0 0 700 1003" enable-background="new 0 0 700 1003" xml:space="preserve">
<g>
	<path fill="none" d="M1,1001C1,667.778,1,334.557,1,1c164,0,328,0,492,0c-0.82,0.393-1.606,0.89-2.465,1.161
		c-13.475,4.25-21.278,17.331-18.637,31.255c1.128,5.944,4.32,10.73,8.69,15.2c-35.191,54.52-70.342,108.977-105.489,163.427
		c-16.496-4.723-32.353-4.005-48.279,1.659c-28.55-38.617-57.008-77.109-85.367-115.469c8.349-11.53,8.256-22.502,0.063-30.739
		c-7.537-7.577-19.243-8.562-27.858-2.345c-8.408,6.069-11.278,17.372-6.794,26.754c5.007,10.476,15.372,14.283,28.791,10.313
		c25.927,39.103,51.921,78.307,78.063,117.734c-23.281,15.584-35.59,36.917-36.538,64.912c51.031,0,101.576,0,152.492,0
		c-0.922-28.584-13.721-50.013-37.225-65.409c32.037-55.68,63.872-111.009,95.633-166.208c1.978,0.494,3.407,0.891,4.854,1.207
		c14.208,3.112,28.413-6.124,31.715-20.606c3.253-14.27-5.885-28.654-20.215-31.88C503.911,1.849,503.477,1.331,503,1
		c65.973,0,131.945,0,198,0c0,333.333,0,666.667,0,1000c-86.828,0-173.657,0.001-260.485-0.007c-5.498,0-10.995-0.076-16.492-0.117
		c0.277-2.705,2.395-1.79,3.852-1.821c5.497-0.117,11.015,0.181,16.492-0.174c12.365-0.801,24.708-1.94,37.066-2.854
		c6.108-0.452,12.24-0.595,18.345-1.091c4.594-0.374,9.157-1.117,13.74-1.642c6.885-0.787,13.772-1.558,20.665-2.275
		c4.274-0.444,8.585-0.605,12.836-1.198c8.317-1.16,16.616-2.464,24.901-3.834c10.724-1.774,21.479-3.41,32.122-5.593
		c10.651-2.184,21.25-4.706,31.744-7.549c14.699-3.981,29.267-8.522,42.362-16.555c4.042-2.479,7.894-5.627,11-9.193
		c5.315-6.104,5.479-10.551,0.315-17.923c-1.594-2.275-3.816-4.211-6.041-5.925c-10.136-7.81-21.945-12.44-33.966-16.032
		c-15.462-4.62-31.264-8.122-46.974-11.878c-4.786-1.145-9.753-1.535-14.636-2.271c-0.202-0.449-0.514-0.882-0.588-1.351
		c-3.056-19.229-6.094-38.461-9.124-57.694c-6.631-42.086-13.262-84.171-19.874-126.26c-0.915-5.823-1.723-11.665-2.633-17.861
		c3.091,0,5.569,0.021,8.047-0.003c33.776-0.318,61.146-27.284,61.209-61.017c0.168-90.486,0.142-180.973-0.013-271.458
		c-0.031-18.286-7.421-33.619-21.208-45.658c-12.5-10.915-27.208-14.991-43.75-14.968c-131.146,0.193-262.293,0.107-393.44,0.107
		c-8.332,0-16.664,0.001-24.996,0.003c-7.925,0.003-15.623,1.395-22.809,4.699c-24.474,11.253-37.485,30.46-37.558,57.389
		c-0.243,89.486-0.094,178.973-0.091,268.459c0,1.333,0.02,2.667,0.07,3.998c1.096,28.781,23.727,53.799,52.302,57.617
		c5.536,0.739,11.156,0.841,16.796,1.241c-0.105,1.202-0.133,2.205-0.288,3.188c-4.15,26.302-8.32,52.6-12.472,78.901
		c-4.489,28.437-8.936,56.881-13.455,85.312c-1.825,11.484-3.794,22.945-5.698,34.416c-10.993,2.084-22.099,3.705-32.954,6.356
		c-17.477,4.269-35.035,8.45-51.353,16.416c-7.155,3.493-14.19,7.056-19.666,13.178c-5.686,6.356-5.776,13.708,0.178,19.931
		c9.984,10.435,22.994,15.576,36.226,19.803c13.171,4.206,26.724,7.235,40.151,10.614c19.519,4.912,39.447,7.604,59.325,10.487
		c9.625,1.395,19.351,2.077,29.026,3.13c11.8,1.285,23.58,2.777,35.396,3.884c9.708,0.909,19.448,1.531,29.187,2.017
		c10.437,0.519,20.889,0.732,31.334,1.068c1.331,0.043,2.712-0.183,3.979,0.112c0.721,0.168,1.255,1.14,1.873,1.749
		c-1.831,0.041-3.662,0.118-5.493,0.118C183.99,1001,92.495,1001,1,1001z"/>
	<path fill-rule="evenodd" clip-rule="evenodd" fill="#121324" d="M1,1001c91.495,0,182.99,0,274.485-0.006
		c1.831,0,3.662-0.077,5.493-0.118c1.158,0.062,2.316,0.18,3.474,0.181c45.365,0.009,90.73,0.009,136.096,0
		c1.158,0,2.316-0.117,3.475-0.181c5.497,0.041,10.994,0.117,16.492,0.117C527.343,1001.001,614.172,1001,701,1001
		c0,26.667,0,53.333,0,80c-233.333,0-466.667,0-700,0C1,1054.333,1,1027.667,1,1001z M143.498,1034.859
		c-0.588-1.56-0.686-3.217-1.507-3.741c-2.849-1.818-6.048-2.757-9.504-1.905c-3.408,0.84-5.375,3.06-5.608,6.147
		c-0.254,3.374,1.646,5.298,4.457,6.456c2.141,0.883,4.529,1.232,6.562,2.289c1.286,0.668,3.089,2.362,2.932,3.309
		c-0.236,1.42-1.829,3.439-3.13,3.684c-2.651,0.497-5.562,0.32-8.236-0.219c-2.546-0.514-3.382,0.035-3.131,2.485
		c6.187,2.009,9.712,2.149,13.232,0.771c3.094-1.212,5.042-3.426,5.197-6.678c0.158-3.327-1.722-5.645-4.85-6.807
		c-2.018-0.749-4.119-1.278-6.127-2.052c-1.688-0.65-3.766-1.337-3.26-3.7c0.505-2.36,2.664-3.07,4.688-2.718
		C137.606,1032.597,139.889,1033.653,143.498,1034.859z M211.003,1054.791c-3.029-4.258-5.683-7.988-9.148-12.86
		c2.882-2.277,5.528-4.368,8.362-6.608c-5.921-1.774-7.116,4.623-11.581,5.692c0-4.033,0-7.824,0-11.701c-1.376,0-2.4,0-3.616,0
		c0,4.478,0,8.627,0,12.776c0,4.267,0,8.532,0,12.648c2.55,0.558,3.808,0.266,3.731-2.228c-0.065-2.139,0.26-4.289,0.425-6.605
		C204.143,1048.217,203.467,1056.176,211.003,1054.791z M175.512,1045.193c0.103-6.11-3.586-10.28-9.078-10.258
		c-5.309,0.021-8.867,3.924-8.978,9.847c-0.114,6.1,3.593,10.294,9.071,10.263C171.832,1055.016,175.412,1051.089,175.512,1045.193z
		 M41.582,1052.33c-0.628-1.65-1.092-2.799-1.503-3.964c-2.033-5.765-4.004-11.551-6.126-17.281
		c-0.336-0.907-1.337-1.567-2.03-2.342c-0.284,0.237-0.568,0.475-0.853,0.712c2.664,7.592,5.283,15.2,8.044,22.757
		c0.392,1.072,1.474,1.893,2.237,2.829c0.923-0.942,2.277-1.724,2.698-2.854c2.542-6.814,4.884-13.704,7.253-20.582
		c0.269-0.781,0.286-1.648,0.42-2.477c-0.332-0.104-0.665-0.207-0.997-0.311C46.881,1036.115,45.409,1044.424,41.582,1052.33z
		 M191.983,1053.719c-0.216-2.017-0.698-2.748-2.905-2.267c-1.715,0.375-3.989-0.075-5.52-0.988
		c-2.359-1.407-2.879-5.604-1.638-8.655c1.174-2.887,3.283-4.193,6.808-3.396c2.151,0.486,3.157,0.369,3.179-1.981
		c-5.226-2.374-9.225-1.757-12.042,1.85c-2.662,3.406-2.767,9.538-0.225,13.097C182.306,1055.106,186.1,1055.893,191.983,1053.719z
		 M94.977,1044.809c-0.094,6.147,3.534,10.25,9.056,10.241c5.308-0.009,8.922-3.96,8.989-9.823
		c0.069-6.103-3.637-10.302-9.069-10.276C98.658,1034.975,95.067,1038.919,94.977,1044.809z M66.765,1046.125
		c-0.416-2.553-0.479-4.4-1.044-6.08c-0.893-2.654-2.682-4.602-5.635-5.026c-2.881-0.415-5.208,0.677-7.027,2.896
		c-2.958,3.605-3.045,10.391-0.146,13.963c1.24,1.527,2.598,2.925,5.202,1.564c-2.803-1.688-5.252-3.418-4.977-7.316
		C57.437,1046.125,61.692,1046.125,66.765,1046.125z M635.112,1039.999c-1.827,0.212-3.021,1.446-3.164,3.826
		c-0.093,1.52-0.73,3.048-0.602,4.527c0.143,1.635,0.409,3.85,1.486,4.651c1.146,0.854,3.449,0.803,4.983,0.315
		c1.884-0.598,2.445-2.408,2.006-4.511c-0.272-1.303-0.206-2.725-0.037-4.061C640.147,1041.891,638.439,1039.859,635.112,1039.999z
		 M628.404,1050.293c-0.334-0.144-0.67-0.286-1.005-0.43c0.173-1.975,0.397-3.947,0.503-5.926c0.122-2.27-1.699-4.01-4.123-3.955
		c-2.356,0.053-3.592,1.288-3.829,3.663c-0.169,1.679-0.83,3.354-0.74,5.001c0.082,1.502,0.455,3.613,1.471,4.279
		c1.268,0.831,3.451,0.897,5,0.455C626.792,1053.064,627.511,1051.372,628.404,1050.293z M151.111,1029.56
		c-0.434-0.304-0.868-0.606-1.302-0.909c-0.681,0.856-1.928,1.697-1.952,2.572c-0.159,5.818-0.18,11.648,0.007,17.468
		c0.107,3.34,2.015,5.625,4.934,6.002c1.042,0.134,2.229-0.855,3.989-1.604c-6.377-3.089-6.561-3.688-5.327-14.809
		c1.387-0.23,2.798-0.466,4.263-0.709c0-0.721,0.148-1.573-0.023-1.644c-1.419-0.581-2.897-1.018-4.589-1.573
		C151.111,1032.809,151.111,1031.184,151.111,1029.56z M83.888,1037.118c-4.703-3.235-9.465-2.695-12.466,1.048
		c-3.417,4.263-2.885,11.502,1.1,14.938c3.228,2.782,8.467,2.719,11.219-0.136c-9.655-0.166-12.135-1.481-12.254-7.177
		c-0.045-2.176,0.651-4.646,1.785-6.511C75.686,1035.312,80.041,1037.725,83.888,1037.118z M89.127,1028.911
		c-0.558,0.012-1.116,0.023-1.674,0.036c-0.096,1.652-0.267,3.305-0.274,4.959c-0.022,4.797-0.169,9.604,0.095,14.389
		c0.25,4.537,1.826,6,6.229,6.017c-6.748-4.755-2.986-11.177-4.033-16.641c1.571-0.659,2.64-1.108,4.682-1.965
		c-2.219-0.62-3.373-0.941-4.445-1.241C89.499,1032.477,89.313,1030.693,89.127,1028.911z M577.619,1045.939
		c0.264,3.021,0.484,5.551,0.778,8.932c3.007-3.087-0.683-8.311,5.194-8.915c0.256,2.82,0.493,5.422,0.729,8.023
		c0.415-0.014,0.831-0.026,1.246-0.04c0.604-2.706,0.909-5.531-0.236-8.206c-0.363-0.848-2.385-1.841-3.123-1.528
		c-3.712,1.57-7.419-0.943-11.041,0.29c-0.429,7.32-0.429,7.32,1.247,9.494C574.045,1051.4,570.94,1045.995,577.619,1045.939z
		 M651.796,1046.646c0.215,1.397,0.276,2.566,0.587,3.665c0.645,2.276,2.019,3.749,4.596,3.73c2.563-0.019,4.255-1.455,4.503-3.769
		c0.271-2.539,0.237-5.309-0.555-7.68c-0.404-1.211-2.732-2.38-4.235-2.439c-1.264-0.049-2.924,1.291-3.794,2.469
		C652.092,1043.715,652.101,1045.407,651.796,1046.646z M617.217,1047.06c-0.347-1.464-0.296-3.206-1.125-4.246
		c-1.003-1.259-2.757-2.652-4.175-2.641c-1.413,0.011-3.73,1.463-4.03,2.683c-0.638,2.592-0.653,5.541-0.055,8.145
		c0.287,1.245,2.433,2.529,3.957,2.91c2.136,0.533,3.807-0.803,4.498-2.973C616.684,1049.695,616.903,1048.396,617.217,1047.06z
		 M440.758,1050.037c-0.825-2.352-1.287-4.24-2.143-5.931c-0.729-1.439-0.19-4.14-3.611-4.057c1.842,5.062,3.521,9.678,5.202,14.294
		c0.55-0.009,1.101-0.018,1.651-0.026c1.662-4.625,3.325-9.251,4.988-13.877c-0.34-0.164-0.68-0.329-1.02-0.493
		C442.628,1042.125,443.525,1046.566,440.758,1050.037z M596.718,1040.154c-0.03,0.366-0.06,0.732-0.09,1.1
		c1.438,0.34,2.875,0.681,4.509,1.068c-0.924,1.438-1.709,2.659-2.679,4.17c0.959,0.38,1.869,0.478,2.336,0.984
		c0.789,0.855,1.299,1.971,1.926,2.978c-1.112,0.495-2.186,1.218-3.348,1.413c-0.928,0.156-1.964-0.33-3.597-0.662
		c3.176,3.229,5.932,3.642,7.865,1.456c0.706-0.798,1.492-2.236,1.223-3.039c-0.57-1.694-1.813-3.163-2.823-4.794
		c0.856-1.344,1.799-2.823,2.979-4.674C601.883,1040.154,599.3,1040.154,596.718,1040.154z M503.334,1041.971
		c-1.572-2.637-3.817-2.391-5.724-1.545c-1.133,0.503-2.676,2.376-2.444,3.167c0.435,1.482,1.908,2.758,3.168,3.873
		c1.134,1.004,2.559,1.678,3.818,2.473c-1.977,3.896-4.968,0.667-7.738,1.98c1.029,0.747,1.57,1.334,2.238,1.591
		c3.071,1.178,5.85,0.41,6.939-1.82c1.046-2.143,0.021-3.79-3.374-5.576c-1.188-0.624-2.305-1.382-3.453-2.078
		c0.099-0.457,0.198-0.913,0.297-1.369C498.96,1042.455,500.858,1042.245,503.334,1041.971z M456.14,1052.094
		c-2.488-0.057-5.281,0.96-6.018-3.013c1.324,0,2.478,0.055,3.624-0.017c1.068-0.066,2.129-0.269,3.433-0.443
		c-0.569-2.942-1.84-5.045-4.604-4.536c-1.635,0.301-3.571,1.808-4.335,3.303c-1.032,2.019-0.17,4.328,1.855,5.676
		C452.172,1054.446,454.326,1054.742,456.14,1052.094z M564.03,1043.966c-2.786-0.042-5.04,2.157-5.072,4.948
		c-0.033,2.775,2.177,5.066,4.927,5.109c2.771,0.043,5.031-2.158,5.095-4.962C569.042,1046.313,566.802,1044.008,564.03,1043.966z
		 M517.048,1054.027c2.729-0.059,4.98-2.404,4.928-5.134c-0.053-2.75-2.366-4.971-5.126-4.921c-2.777,0.049-4.937,2.315-4.88,5.12
		C512.025,1051.86,514.316,1054.086,517.048,1054.027z M481.008,1043.969c-2.791-0.043-5.021,2.144-5.045,4.949
		c-0.023,2.795,2.17,5.073,4.921,5.112c2.728,0.039,5.053-2.229,5.102-4.978C486.034,1046.341,483.754,1044.012,481.008,1043.969z
		 M535.714,1040.007c-0.404,0.03-0.81,0.06-1.214,0.09c-1.093,5.787-0.809,11.424,0.966,14.244c0.333-1.947,0.604-3.526,0.945-5.521
		c1.806,2.137,3.223,3.812,4.639,5.489c0.311-0.251,0.622-0.502,0.933-0.753c-1.013-1.77-2.025-3.539-2.965-5.183
		c0.798-1.523,1.469-2.802,2.139-4.081c-0.231-0.14-0.463-0.278-0.693-0.418c-1.262,1.074-2.522,2.149-4.253,3.624
		C536.015,1044.549,535.864,1042.278,535.714,1040.007z M115.923,1034.138c-0.006,7.664-0.074,14.219,0.805,20.798
		c1.708-3.163,1.38-6.567,1.14-9.808c-0.316-4.263,0.941-7.062,5.25-8.162c0.333-0.085,0.558-0.592,0.833-0.902
		c-0.133-0.327-0.266-0.653-0.398-0.979c-1.767,0.626-3.533,1.251-5.113,1.812C117.813,1036.208,117.245,1035.586,115.923,1034.138z
		 M663.99,1040.118c-0.031,0.433-0.062,0.864-0.094,1.296c1.933,0.248,3.865,0.494,6.103,0.78
		c-1.822,3.996-3.527,7.734-5.232,11.472c0.498,0.225,0.997,0.449,1.495,0.674c2.555-4.438,4.743-9.058,6.771-14.222
		C669.515,1040.118,666.752,1040.118,663.99,1040.118z M467.852,1045.991c-3.556-2.536-5.762-2.514-7.71-0.277
		c-1.82,2.091-1.565,5.323,0.562,7.14c2.162,1.846,4.529,1.533,6.907-0.909c-4.988,0.271-6.489-0.397-6.527-2.906
		C461.047,1046.588,462.451,1045.869,467.852,1045.991z M533.007,1051.831c-2.67-0.334-6.268,1.751-6.889-2.622
		c-0.347-2.44,1.092-3.178,6.213-3.442c-2.742-2.308-5.033-2.363-7.069-0.171c-1.764,1.898-1.778,4.884-0.033,6.787
		C527.308,1054.65,529.742,1054.554,533.007,1051.831z M557.695,1052.064c-5.303,0.01-6.463-0.496-6.609-2.884
		c-0.148-2.417,1.192-3.15,6.257-3.422c-2.809-2.289-5.128-2.338-7.12-0.148c-1.73,1.901-1.727,4.917,0.009,6.812
		C552.276,1054.653,554.875,1054.529,557.695,1052.064z M213.513,1028.694c0.405,3.357,0.76,6.295,1.164,9.64
		c2.736-0.967,5.012-1.77,6.943-2.451c-1.366-2.451-2.367-4.245-3.334-5.98C216.991,1029.574,215.427,1029.179,213.513,1028.694z
		 M650.111,1053.847c-4.045-4.204-0.899-9.492-3.244-15.277c-1.604,2.107-2.644,3.472-3.935,5.167c1.212,0,2.073,0,3.028,0
		c-0.331,3.393,1.219,7.023-2.356,10.11C646.099,1053.847,647.873,1053.847,650.111,1053.847z M506.522,1042.426
		c-0.477,1.059-1.376,2.104-1.297,3.069c0.195,2.381,0.586,4.823,1.435,7.035c0.316,0.825,2.122,1.079,3.249,1.593
		c-2.576-4.027-2.71-5.959-0.664-8.686C508.434,1044.54,507.685,1043.712,506.522,1042.426z M473.986,1045.437
		c-1.22-1.149-2.204-2.077-3.296-3.107c-2.467,3.421-0.536,6.704-0.222,9.86c0.079,0.789,2.021,1.393,3.106,2.081
		C471.284,1049.549,471.235,1048.182,473.986,1045.437z M493.018,1044.533c-1.599,0-3.197,0-4.818,0
		c-0.552,6.997-0.544,7.068,1.219,9.52C490.784,1051.019,488.351,1046.508,493.018,1044.533z"/>
	<path fill-rule="evenodd" clip-rule="evenodd" fill="#030303" d="M503,1c0.477,0.331,0.911,0.849,1.435,0.967
		c14.33,3.226,23.468,17.61,20.215,31.88c-3.302,14.482-17.507,23.719-31.715,20.606c-1.447-0.316-2.877-0.713-4.854-1.207
		c-31.761,55.199-63.596,110.528-95.633,166.208c23.504,15.396,36.303,36.825,37.225,65.409c-50.916,0-101.46,0-152.492,0
		c0.948-27.995,13.257-49.328,36.538-64.912c-26.143-39.428-52.137-78.632-78.063-117.734c-13.419,3.97-23.784,0.162-28.791-10.313
		c-4.484-9.382-1.613-20.685,6.794-26.754c8.615-6.218,20.321-5.232,27.858,2.345c8.193,8.237,8.286,19.209-0.063,30.739
		c28.359,38.359,56.817,76.852,85.367,115.469c15.926-5.664,31.783-6.382,48.279-1.659c35.147-54.45,70.298-108.907,105.489-163.427
		c-4.37-4.47-7.562-9.256-8.69-15.2c-2.642-13.924,5.162-27.005,18.637-31.255C491.394,1.89,492.18,1.393,493,1
		C496.333,1,499.667,1,503,1z"/>
	<path fill-rule="evenodd" clip-rule="evenodd" fill="#020202" d="M118.275,892.131c1.904-11.471,3.873-22.932,5.698-34.416
		c4.519-28.432,8.966-56.876,13.455-85.312c4.151-26.302,8.322-52.6,12.472-78.901c0.155-0.982,0.183-1.985,0.288-3.188
		c-5.64-0.4-11.261-0.502-16.796-1.241c-28.576-3.818-51.207-28.836-52.302-57.617c-0.05-1.331-0.07-2.665-0.07-3.998
		c-0.002-89.486-0.151-178.973,0.091-268.459c0.073-26.929,13.084-46.136,37.558-57.389c7.187-3.305,14.884-4.696,22.809-4.699
		c8.332-0.002,16.664-0.003,24.996-0.003c131.147,0,262.294,0.086,393.44-0.107c16.542-0.023,31.25,4.053,43.75,14.968
		c13.787,12.039,21.177,27.372,21.208,45.658c0.154,90.485,0.181,180.972,0.013,271.458c-0.062,33.732-27.433,60.698-61.209,61.017
		c-2.478,0.023-4.956,0.003-8.047,0.003c0.91,6.196,1.718,12.038,2.633,17.861c6.612,42.089,13.243,84.174,19.874,126.26
		c3.03,19.233,6.068,38.465,9.124,57.694c0.074,0.469,0.386,0.901,0.588,1.351c0.085,1.321,0.065,2.658,0.271,3.96
		c2.456,15.574,4.958,31.142,7.419,46.716c0.868,5.493,1.657,10.999,2.51,16.686c-5.051,0.999-9.521,1.882-14.173,2.802
		c-2.387-9.384-4.618-18.221-6.885-27.048c-4.041-15.739-8.104-31.473-12.158-47.209c-0.14-0.809-0.227-1.632-0.428-2.426
		c-14.19-56.05-28.385-112.1-42.596-168.145c-2.397-9.456-4.869-18.895-7.287-28.269c-8.188,0-15.959,0-24.074,0
		c2.323,23.084,4.607,45.899,6.92,68.712c2.552,25.164,5.107,50.328,7.703,75.487c1.639,15.887,3.355,31.766,5.038,47.647
		c1.427,14.874,2.859,29.748,4.266,44.624c0.104,1.097,0.014,2.212,0.014,3.567c-4.19,0.609-8.245,1.198-12.408,1.803
		c-0.374-1.661-0.691-2.942-0.95-4.235c-3.115-15.618-6.222-31.238-9.33-46.857c-0.678-3.926-1.281-7.865-2.044-11.773
		C479.783,818.528,469.892,767.949,460,717.37c-1.777-9.09-3.574-18.176-5.359-27.25c-67.973,0-135.532,0-203.267,0
		c-0.476,2.248-0.944,4.33-1.354,6.423c-7.546,38.502-15.117,76.999-22.612,115.511c-4.414,22.677-8.707,45.378-13.053,68.067
		c-3.451,17.233-6.901,34.467-10.399,51.941c-4.468-0.708-8.506-1.349-12.753-2.021c0.461-4.709,0.887-8.993,1.299-13.279
		c1.114-11.595,2.222-23.19,3.333-34.786c1.192-11.255,2.414-22.507,3.572-33.766c2.555-24.844,5.072-49.69,7.617-74.534
		c1.867-18.219,3.771-36.434,5.625-54.653c0.972-9.551,1.871-19.109,2.827-28.901c-8.358,0-16.29,0-24.222,0
		c-0.454,1.646-0.876,3.079-1.242,4.526c-10.238,40.452-20.494,80.899-30.694,121.361c-6.054,24.014-12.019,48.051-18.024,72.077
		c-0.427,1.431-0.908,2.85-1.275,4.296c-5.68,22.397-11.34,44.8-17.031,67.194c-0.31,1.22-0.848,2.382-1.318,3.676
		c-4.717-0.998-9.073-1.919-13.515-2.858c0-1.079-0.108-1.906,0.016-2.697c1.42-9.037,2.92-18.062,4.311-27.104
		C114.449,917.778,116.346,904.952,118.275,892.131z M425.974,342.842c-1.452-0.272-2.903-0.777-4.355-0.782
		c-15.147-0.052-30.296-0.023-45.442-0.017c-16.469-0.006-32.937-0.011-49.404-0.016c-16.582,0.001-33.163,0.001-49.744,0.002
		c-9.748-0.062-19.497-0.18-29.244-0.166c-6.762,0.01-13.524,0.203-20.286,0.313c-13.159-0.068-26.318-0.285-39.474-0.126
		c-4.613,0.057-9.336,0.555-13.802,1.677c-27.674,6.953-46.284,31.041-46.326,60.035c-0.085,59.659-0.042,119.319,0.02,178.979
		c0.004,3.809,0.376,7.655,0.979,11.421c4.219,26.305,26.716,47.667,53.216,49.774c12.094,0.962,24.301,0.544,36.458,0.67
		c2.976,0.031,5.955-0.257,8.932-0.398c0.284,0.162,0.567,0.467,0.851,0.466c16.216-0.04,32.433-0.106,48.649-0.17
		c16.581,0.01,33.161,0.019,49.742,0.027c7.814,0.092,15.627,0.26,23.441,0.253c8.645-0.007,17.29-0.173,25.935-0.271
		c16.583-0.212,33.166-0.424,49.75-0.637c0.332,0.011,0.675,0.076,0.996,0.022c29.298-4.948,51.128-30.514,51.156-60.135
		c0.056-60.16,0.078-120.32-0.018-180.48c-0.032-20.25-8.265-36.74-24.331-49.005C445.552,348.08,436.491,343.539,425.974,342.842z
		 M517.852,375.603c-0.087,18.895,14.947,34.239,33.633,34.328c18.725,0.089,34.102-15.031,34.332-33.759
		c0.229-18.622-15.089-34.169-33.763-34.269C533.16,341.804,517.938,356.801,517.852,375.603z M517.844,460.947
		c-0.049,18.921,14.942,34.08,33.765,34.143c18.766,0.062,34.09-15.085,34.209-33.814c0.119-18.613-15.248-34.126-33.88-34.2
		C533.182,427,517.893,442.189,517.844,460.947z M551.618,582.233c0,0.003,0,0.007,0,0.011c10.494,0,20.988,0.002,31.482-0.004
		c1.165-0.001,2.515,0.312,3.448-0.166c1.18-0.605,2.884-1.951,2.804-2.837c-0.119-1.308-1.384-2.847-2.589-3.615
		c-0.974-0.621-2.58-0.308-3.906-0.309c-20.821-0.017-41.643-0.022-62.464-0.009c-1.323,0.001-2.884-0.228-3.906,0.375
		c-1.099,0.647-2.348,2.168-2.317,3.276c0.028,1.081,1.41,2.425,2.532,3.082c0.88,0.517,2.271,0.19,3.435,0.191
		C530.631,582.236,541.124,582.233,551.618,582.233z M552.259,605.174c-10.657,0-21.315-0.012-31.972,0.009
		c-2.61,0.005-5.677-0.593-6.244,3.208c-0.382,2.555,1.645,3.713,6.235,3.715c20.981,0.01,41.963,0.007,62.944,0
		c1.164-0.001,2.608,0.332,3.424-0.223c1.206-0.819,2.57-2.23,2.709-3.515c0.101-0.925-1.512-2.414-2.684-2.985
		c-1.09-0.53-2.61-0.209-3.94-0.21C572.574,605.164,562.416,605.168,552.259,605.174z M551.652,634.92
		c-9.655,0-19.311-0.003-28.967,0.002c-1.831,0.001-3.799-0.377-5.448,0.179c-1.286,0.434-2.975,2.014-3.017,3.141
		c-0.043,1.138,1.563,2.552,2.751,3.439c0.653,0.489,1.931,0.172,2.927,0.173c21.31,0.005,42.619,0.006,63.928-0.001
		c0.995,0,2.237,0.276,2.93-0.203c1.116-0.771,2.697-2.173,2.577-3.115c-0.163-1.278-1.563-2.657-2.786-3.449
		c-0.83-0.537-2.266-0.158-3.43-0.158C572.629,634.922,562.141,634.924,551.652,634.92z M552.002,597.071c0,0.003,0,0.007,0,0.01
		c10.994,0,21.989-0.031,32.982,0.023c2.483,0.013,4.513-0.649,4.487-3.399c-0.024-2.65-1.996-3.609-4.478-3.573
		c-0.499,0.007-0.999,0.005-1.499,0.005c-21.155,0.001-42.311-0.001-63.466,0.014c-1.158,0.001-2.646-0.275-3.396,0.317
		c-1.141,0.902-2.348,2.422-2.416,3.737c-0.046,0.896,1.664,2.178,2.849,2.75c0.949,0.458,2.288,0.115,3.454,0.115
		C531.014,597.072,541.508,597.071,552.002,597.071z M551.499,626.977c10.652,0,21.305,0.012,31.957-0.006
		c4.301-0.007,6.074-1.055,6.081-3.489c0.007-2.433-1.701-3.417-6.094-3.419c-21.139-0.009-42.277-0.006-63.415,0.002
		c-1.162,0.001-2.577-0.315-3.423,0.224c-1.111,0.709-2.441,2.121-2.44,3.23c0,1.103,1.325,2.583,2.452,3.196
		c1.045,0.568,2.595,0.253,3.923,0.255C530.859,626.981,541.179,626.976,551.499,626.977z M532.139,530.979
		c0.082-5.275-4.134-9.614-9.321-9.594c-4.978,0.02-9.137,4.17-9.237,9.217c-0.105,5.3,4.054,9.521,9.356,9.498
		C528.03,540.078,532.06,536.084,532.139,530.979z M551.831,540.111c5.084-0.026,9.143-4.046,9.235-9.146
		c0.095-5.239-4.203-9.628-9.382-9.58c-4.907,0.044-9.258,4.338-9.353,9.23C542.231,535.788,546.584,540.139,551.831,540.111z
		 M589.991,530.638c-0.06-4.985-4.286-9.225-9.246-9.271c-5.087-0.049-9.625,4.509-9.526,9.567c0.099,4.995,4.291,9.13,9.307,9.177
		C585.807,540.16,590.055,535.909,589.991,530.638z"/>
	<path fill-rule="evenodd" clip-rule="evenodd" fill="#DDDFE1" d="M491.699,880.885c3.108,15.619,6.215,31.239,9.33,46.857
		c0.259,1.293,0.576,2.574,0.95,4.235c4.163-0.604,8.218-1.193,12.408-1.803c0-1.355,0.09-2.471-0.014-3.567
		c-1.406-14.876-2.839-29.75-4.266-44.624c6.986,0.992,13.962,2.074,20.963,2.956c11.245,1.415,22.507,2.697,33.761,4.036
		c4.054,15.736,8.117,31.47,12.158,47.209c2.267,8.827,4.498,17.664,6.885,27.048c4.652-0.92,9.122-1.803,14.173-2.802
		c-0.853-5.687-1.642-11.192-2.51-16.686c-2.461-15.574-4.963-31.142-7.419-46.716c-0.206-1.302-0.187-2.639-0.271-3.96
		c4.883,0.735,9.85,1.126,14.636,2.271c15.71,3.756,31.512,7.258,46.974,11.878c12.021,3.592,23.83,8.223,33.966,16.032
		c2.225,1.714,4.447,3.649,6.041,5.925c5.164,7.372,5,11.818-0.315,17.923c-3.106,3.566-6.958,6.714-11,9.193
		c-13.096,8.032-27.663,12.573-42.362,16.555c-10.494,2.843-21.093,5.365-31.744,7.549c-10.643,2.183-21.398,3.818-32.122,5.593
		c-8.285,1.37-16.584,2.674-24.901,3.834c-4.251,0.593-8.562,0.754-12.836,1.198c-6.893,0.718-13.78,1.488-20.665,2.275
		c-4.583,0.524-9.146,1.268-13.74,1.642c-6.104,0.496-12.236,0.639-18.345,1.091c-12.358,0.913-24.701,2.053-37.066,2.854
		c-5.478,0.354-10.995,0.057-16.492,0.174c-1.457,0.031-3.574-0.884-3.852,1.822c-1.158,0.062-2.316,0.18-3.475,0.18
		c-45.365,0.009-90.73,0.009-136.096,0c-1.158-0.001-2.316-0.118-3.474-0.181c-0.618-0.609-1.152-1.581-1.873-1.749
		c-1.266-0.295-2.647-0.069-3.979-0.112c-10.446-0.336-20.897-0.55-31.334-1.068c-9.739-0.485-19.479-1.107-29.187-2.017
		c-11.816-1.106-23.596-2.599-35.396-3.884c-9.675-1.053-19.401-1.735-29.026-3.13c-19.878-2.883-39.806-5.575-59.325-10.487
		c-13.427-3.379-26.98-6.408-40.151-10.614c-13.232-4.227-26.242-9.368-36.226-19.803c-5.954-6.223-5.864-13.574-0.178-19.931
		c5.476-6.122,12.511-9.685,19.666-13.178c16.318-7.966,33.875-12.147,51.353-16.416c10.854-2.651,21.96-4.272,32.954-6.356
		c-1.929,12.821-3.827,25.647-5.798,38.462c-1.391,9.042-2.891,18.066-4.311,27.104c-0.124,0.791-0.016,1.618-0.016,2.697
		c4.442,0.939,8.798,1.86,13.515,2.858c0.47-1.294,1.009-2.456,1.318-3.676c5.691-22.395,11.351-44.797,17.031-67.194
		c0.367-1.446,0.848-2.865,1.275-4.296c18.181-2.037,36.361-4.073,54.542-6.11c-1.11,11.596-2.218,23.191-3.333,34.786
		c-0.412,4.286-0.838,8.57-1.299,13.279c4.248,0.673,8.285,1.313,12.753,2.021c3.499-17.475,6.949-34.708,10.399-51.941
		c9.731-0.701,19.457-1.502,29.196-2.08c12.895-0.765,25.796-1.454,38.702-1.991c11.443-0.476,22.899-1.017,34.346-0.967
		c25.78,0.113,51.56,0.518,77.338,0.916c13.95,0.215,27.898,0.613,41.846,1.02c8.619,0.25,17.233,0.669,25.85,1.014
		c0.332,0.014,0.665,0.037,0.996,0.065c7.401,0.634,14.806,1.246,22.203,1.917C487.127,880.223,489.41,880.59,491.699,880.885z"/>
	<path fill-rule="evenodd" clip-rule="evenodd" fill="#EDEDED" d="M143.498,1034.859c-3.609-1.206-5.892-2.263-8.286-2.679
		c-2.025-0.353-4.183,0.357-4.688,2.718c-0.506,2.363,1.571,3.05,3.26,3.7c2.008,0.773,4.109,1.303,6.127,2.052
		c3.128,1.162,5.008,3.479,4.85,6.807c-0.154,3.252-2.103,5.466-5.197,6.678c-3.52,1.379-7.045,1.238-13.232-0.771
		c-0.25-2.45,0.585-2.999,3.131-2.485c2.675,0.539,5.585,0.716,8.236,0.219c1.301-0.244,2.895-2.264,3.13-3.684
		c0.157-0.946-1.646-2.641-2.932-3.309c-2.033-1.057-4.421-1.406-6.562-2.289c-2.811-1.158-4.71-3.082-4.457-6.456
		c0.233-3.088,2.2-5.308,5.608-6.147c3.456-0.852,6.655,0.087,9.504,1.905C142.812,1031.643,142.91,1033.3,143.498,1034.859z"/>
	<path fill-rule="evenodd" clip-rule="evenodd" fill="#E7E7E9" d="M211.003,1054.791c-7.537,1.385-6.86-6.574-11.828-8.886
		c-0.165,2.316-0.491,4.467-0.425,6.605c0.077,2.493-1.181,2.785-3.731,2.228c0-4.116,0-8.382,0-12.648c0-4.149,0-8.299,0-12.776
		c1.216,0,2.24,0,3.616,0c0,3.877,0,7.668,0,11.701c4.465-1.069,5.66-7.467,11.581-5.692c-2.834,2.24-5.48,4.331-8.362,6.608
		C205.321,1046.803,207.975,1050.533,211.003,1054.791z"/>
	<path fill-rule="evenodd" clip-rule="evenodd" fill="#EDEDED" d="M175.512,1045.193c-0.1,5.896-3.68,9.822-8.984,9.852
		c-5.478,0.031-9.185-4.163-9.071-10.263c0.11-5.923,3.668-9.825,8.978-9.847C171.926,1034.913,175.615,1039.083,175.512,1045.193z
		 M171.961,1044.82c-0.073-4.104-2.364-6.845-5.655-6.764c-3.205,0.078-5.333,2.94-5.275,7.094c0.058,4.121,2.354,6.888,5.616,6.77
		C169.875,1051.802,172.034,1048.918,171.961,1044.82z"/>
	<path fill-rule="evenodd" clip-rule="evenodd" fill="#DDDFE1" d="M41.582,1052.33c3.827-7.906,5.299-16.215,9.143-23.512
		c0.332,0.104,0.665,0.207,0.997,0.311c-0.134,0.828-0.151,1.695-0.42,2.477c-2.369,6.878-4.71,13.768-7.253,20.582
		c-0.421,1.13-1.775,1.911-2.698,2.854c-0.763-0.937-1.846-1.757-2.237-2.829c-2.761-7.557-5.38-15.165-8.044-22.757
		c0.284-0.237,0.568-0.475,0.853-0.712c0.693,0.774,1.694,1.435,2.03,2.342c2.123,5.73,4.093,11.517,6.126,17.281
		C40.489,1049.531,40.954,1050.68,41.582,1052.33z"/>
	<path fill-rule="evenodd" clip-rule="evenodd" fill="none" d="M191.983,1053.719c-5.884,2.174-9.678,1.388-12.342-2.342
		c-2.542-3.559-2.437-9.69,0.225-13.097c2.816-3.606,6.816-4.224,12.042-1.85c-0.022,2.351-1.028,2.468-3.179,1.981
		c-3.525-0.797-5.633,0.51-6.808,3.396c-1.241,3.051-0.721,7.248,1.638,8.655c1.531,0.913,3.804,1.363,5.52,0.988
		C191.285,1050.971,191.768,1051.702,191.983,1053.719z"/>
	<path fill-rule="evenodd" clip-rule="evenodd" fill="#E0E1E4" d="M94.977,1044.809c0.09-5.89,3.681-9.834,8.976-9.858
		c5.433-0.025,9.139,4.174,9.069,10.276c-0.066,5.863-3.681,9.814-8.989,9.823C98.511,1055.059,94.883,1050.956,94.977,1044.809z
		 M110.94,1044.906c-0.061-4.832-2.782-7.95-6.96-7.976c-4.297-0.026-7.08,3.389-6.912,8.484c0.162,4.907,2.89,7.832,7.178,7.697
		C108.403,1052.98,111.002,1049.795,110.94,1044.906z"/>
	<path fill-rule="evenodd" clip-rule="evenodd" fill="#E0E1E4" d="M66.765,1046.125c-5.073,0-9.328,0-13.628,0
		c-0.275,3.898,2.174,5.628,4.977,7.316c-2.604,1.36-3.962-0.037-5.202-1.564c-2.899-3.572-2.812-10.357,0.146-13.963
		c1.819-2.219,4.146-3.311,7.027-2.896c2.953,0.425,4.743,2.372,5.635,5.026C66.286,1041.725,66.35,1043.572,66.765,1046.125z
		 M64.125,1044.153c-0.589-5.598-2.09-7.406-5.547-7.231c-3.252,0.163-4.853,2.307-5.171,7.231c1.653,0,3.286,0,4.919,0
		C60.126,1044.153,61.927,1044.153,64.125,1044.153z"/>
	<path fill-rule="evenodd" clip-rule="evenodd" fill="#DBDDE0" d="M635.112,1039.999c3.327-0.14,5.035,1.892,4.673,4.749
		c-0.169,1.336-0.235,2.758,0.037,4.061c0.439,2.103-0.122,3.913-2.006,4.511c-1.534,0.487-3.838,0.538-4.983-0.315
		c-1.077-0.802-1.344-3.017-1.486-4.651c-0.129-1.479,0.509-3.008,0.602-4.527C632.092,1041.445,633.285,1040.211,635.112,1039.999z
		"/>
	<path fill-rule="evenodd" clip-rule="evenodd" fill="#DBDDE0" d="M628.404,1050.293c-0.894,1.079-1.612,2.771-2.724,3.088
		c-1.549,0.442-3.732,0.376-5-0.455c-1.016-0.666-1.389-2.777-1.471-4.279c-0.09-1.647,0.571-3.322,0.74-5.001
		c0.237-2.375,1.473-3.61,3.829-3.663c2.424-0.055,4.245,1.686,4.123,3.955c-0.105,1.979-0.33,3.951-0.503,5.926
		C627.734,1050.007,628.07,1050.149,628.404,1050.293z"/>
	<path fill-rule="evenodd" clip-rule="evenodd" fill="none" d="M151.111,1029.56c0,1.624,0,3.249,0,4.795
		c1.691,0.556,3.169,0.992,4.589,1.573c0.172,0.07,0.023,0.923,0.023,1.644c-1.465,0.243-2.876,0.479-4.263,0.709
		c-1.234,11.121-1.05,11.72,5.327,14.809c-1.76,0.748-2.947,1.737-3.989,1.604c-2.918-0.377-4.826-2.662-4.934-6.002
		c-0.187-5.819-0.167-11.649-0.007-17.468c0.024-0.875,1.271-1.716,1.952-2.572C150.243,1028.953,150.677,1029.256,151.111,1029.56z
		"/>
	<path fill-rule="evenodd" clip-rule="evenodd" fill="#D6D7DC" d="M83.888,1037.118c-3.847,0.606-8.203-1.806-10.616,2.162
		c-1.134,1.864-1.831,4.335-1.785,6.511c0.119,5.695,2.599,7.011,12.254,7.177c-2.752,2.854-7.991,2.918-11.219,0.136
		c-3.984-3.436-4.517-10.675-1.1-14.938C74.423,1034.423,79.185,1033.883,83.888,1037.118z"/>
	<path fill-rule="evenodd" clip-rule="evenodd" fill="#D6D7DC" d="M89.127,1028.911c0.186,1.782,0.372,3.565,0.58,5.554
		c1.072,0.3,2.226,0.621,4.445,1.241c-2.042,0.856-3.11,1.306-4.682,1.965c1.047,5.464-2.715,11.886,4.033,16.641
		c-4.403-0.017-5.979-1.479-6.229-6.017c-0.264-4.784-0.117-9.592-0.095-14.389c0.007-1.654,0.178-3.307,0.274-4.959
		C88.011,1028.935,88.569,1028.923,89.127,1028.911z"/>
	<path fill-rule="evenodd" clip-rule="evenodd" fill="#E7E7E9" d="M577.619,1045.939c-6.679,0.056-3.574,5.461-5.205,8.05
		c-1.676-2.174-1.676-2.174-1.247-9.491c3.622-1.236,7.329,1.277,11.041-0.293c0.738-0.312,2.76,0.681,3.123,1.528
		c1.146,2.675,0.841,5.5,0.236,8.206c-0.415,0.014-0.831,0.026-1.246,0.04c-0.236-2.602-0.474-5.203-0.729-8.023
		c-5.877,0.604-2.188,5.828-5.194,8.915C578.104,1051.49,577.883,1048.96,577.619,1045.939z"/>
	<path fill-rule="evenodd" clip-rule="evenodd" fill="#E0E1E4" d="M651.796,1046.646c0.305-1.239,0.296-2.932,1.102-4.023
		c0.87-1.178,2.53-2.518,3.794-2.469c1.503,0.06,3.831,1.229,4.235,2.439c0.792,2.371,0.826,5.141,0.555,7.68
		c-0.248,2.313-1.939,3.75-4.503,3.769c-2.577,0.019-3.951-1.454-4.596-3.73C652.072,1049.213,652.011,1048.044,651.796,1046.646z
		 M659.912,1048.034c0.078-4.299-1.139-6.423-3.135-6.044c-2.849,0.541-2.757,2.936-2.724,5.094c0.018,1.133,0.138,2.38,0.644,3.35
		c0.378,0.725,1.442,1.487,2.213,1.499c0.775,0.012,1.845-0.713,2.278-1.424C659.759,1049.573,659.834,1048.336,659.912,1048.034z"
		/>
	<path fill-rule="evenodd" clip-rule="evenodd" fill="#E0E1E4" d="M617.217,1047.06c-0.313,1.337-0.533,2.636-0.93,3.878
		c-0.691,2.17-2.362,3.506-4.498,2.973c-1.524-0.381-3.67-1.665-3.957-2.91c-0.599-2.604-0.583-5.553,0.055-8.145
		c0.3-1.22,2.617-2.672,4.03-2.683c1.418-0.012,3.172,1.382,4.175,2.641C616.921,1043.854,616.87,1045.596,617.217,1047.06z
		 M614.928,1048.025c0.08-4.274-1.132-6.391-3.146-6.025c-2.866,0.521-2.759,2.927-2.726,5.081c0.018,1.132,0.149,2.375,0.654,3.348
		c0.375,0.724,1.427,1.494,2.189,1.507c0.773,0.013,1.84-0.707,2.277-1.416C614.752,1049.587,614.84,1048.353,614.928,1048.025z"/>
	<path fill-rule="evenodd" clip-rule="evenodd" fill="#D6D7DC" d="M440.758,1050.037c2.768-3.471,1.87-7.912,5.068-10.09
		c0.34,0.164,0.68,0.329,1.02,0.493c-1.663,4.626-3.326,9.252-4.988,13.877c-0.551,0.009-1.102,0.018-1.651,0.026
		c-1.681-4.616-3.36-9.232-5.202-14.294c3.421-0.083,2.883,2.617,3.611,4.057C439.471,1045.797,439.933,1047.686,440.758,1050.037z"
		/>
	<path fill-rule="evenodd" clip-rule="evenodd" fill="#D6D7DC" d="M596.718,1040.154c2.582,0,5.165,0,8.301,0
		c-1.18,1.851-2.122,3.33-2.979,4.674c1.01,1.631,2.253,3.1,2.823,4.794c0.27,0.803-0.517,2.241-1.223,3.039
		c-1.934,2.186-4.689,1.773-7.865-1.456c1.633,0.332,2.669,0.818,3.597,0.662c1.162-0.195,2.235-0.918,3.348-1.413
		c-0.627-1.007-1.137-2.122-1.926-2.978c-0.467-0.507-1.377-0.604-2.336-0.984c0.97-1.511,1.755-2.732,2.679-4.17
		c-1.634-0.388-3.071-0.729-4.509-1.068C596.658,1040.887,596.688,1040.521,596.718,1040.154z"/>
	<path fill-rule="evenodd" clip-rule="evenodd" fill="#DBDDE0" d="M503.334,1041.971c-2.476,0.274-4.374,0.484-6.272,0.695
		c-0.099,0.456-0.198,0.912-0.297,1.369c1.148,0.696,2.266,1.454,3.453,2.078c3.395,1.786,4.42,3.434,3.374,5.576
		c-1.09,2.23-3.868,2.998-6.939,1.82c-0.668-0.257-1.209-0.844-2.238-1.591c2.771-1.313,5.762,1.915,7.738-1.98
		c-1.26-0.795-2.685-1.469-3.818-2.473c-1.26-1.115-2.733-2.391-3.168-3.873c-0.231-0.791,1.312-2.664,2.444-3.167
		C499.517,1039.58,501.762,1039.334,503.334,1041.971z"/>
	<path fill-rule="evenodd" clip-rule="evenodd" fill="#D6D7DC" d="M456.14,1052.094c-1.813,2.648-3.968,2.353-6.045,0.97
		c-2.025-1.348-2.888-3.657-1.855-5.676c0.764-1.495,2.7-3.002,4.335-3.303c2.765-0.509,4.035,1.594,4.604,4.536
		c-1.304,0.175-2.364,0.377-3.433,0.443c-1.146,0.071-2.3,0.017-3.624,0.017C450.858,1053.054,453.651,1052.037,456.14,1052.094z"/>
	<path fill-rule="evenodd" clip-rule="evenodd" fill="#DBDDE0" d="M564.03,1043.966c2.771,0.042,5.012,2.348,4.949,5.096
		c-0.063,2.804-2.323,5.005-5.095,4.962c-2.75-0.043-4.96-2.334-4.927-5.109C558.99,1046.123,561.244,1043.924,564.03,1043.966z
		 M564.262,1053.608c1.272-2.409,2.43-3.659,2.507-4.972c0.108-1.863-1.377-3.244-3.242-2.602c-1.05,0.361-2.343,2.04-2.288,3.059
		C561.303,1050.293,562.707,1051.421,564.262,1053.608z"/>
	<path fill-rule="evenodd" clip-rule="evenodd" fill="#DBDDE0" d="M517.048,1054.027c-2.731,0.059-5.022-2.167-5.078-4.935
		c-0.057-2.805,2.103-5.071,4.88-5.12c2.76-0.05,5.073,2.171,5.126,4.921C522.028,1051.623,519.777,1053.969,517.048,1054.027z
		 M521.216,1049.057c-2.025-1.486-3.152-2.927-4.349-2.987c-0.893-0.046-2.403,1.556-2.695,2.67
		c-0.461,1.756,0.603,3.506,2.605,3.262C518.037,1051.848,519.15,1050.489,521.216,1049.057z"/>
	<path fill-rule="evenodd" clip-rule="evenodd" fill="#DBDDE0" d="M481.008,1043.969c2.746,0.043,5.026,2.372,4.978,5.084
		c-0.049,2.748-2.374,5.017-5.102,4.978c-2.751-0.039-4.944-2.317-4.921-5.112C475.987,1046.112,478.217,1043.926,481.008,1043.969z
		 M480.817,1044.415c-1.34,2.316-2.516,3.505-2.668,4.812c-0.223,1.911,1.265,3.272,3.108,2.764c1.07-0.296,2.479-1.94,2.457-2.951
		C483.69,1047.829,482.305,1046.646,480.817,1044.415z"/>
	<path fill-rule="evenodd" clip-rule="evenodd" fill="#E0E1E4" d="M535.714,1040.007c0.15,2.271,0.301,4.542,0.496,7.492
		c1.73-1.475,2.991-2.55,4.253-3.624c0.23,0.14,0.462,0.278,0.693,0.418c-0.67,1.279-1.341,2.558-2.139,4.081
		c0.939,1.644,1.952,3.413,2.965,5.183c-0.311,0.251-0.622,0.502-0.933,0.753c-1.416-1.677-2.833-3.353-4.639-5.489
		c-0.342,1.994-0.612,3.573-0.945,5.521c-1.774-2.82-2.059-8.457-0.966-14.244C534.904,1040.066,535.31,1040.037,535.714,1040.007z"
		/>
	<path fill-rule="evenodd" clip-rule="evenodd" fill="#E0E1E4" d="M115.923,1034.138c1.321,1.448,1.89,2.07,2.517,2.758
		c1.58-0.561,3.347-1.186,5.113-1.812c0.133,0.326,0.266,0.652,0.398,0.979c-0.275,0.311-0.5,0.817-0.833,0.902
		c-4.309,1.101-5.566,3.899-5.25,8.162c0.241,3.24,0.568,6.645-1.14,9.808C115.85,1048.356,115.917,1041.802,115.923,1034.138z"/>
	<path fill-rule="evenodd" clip-rule="evenodd" fill="#D6D7DC" d="M663.99,1040.118c2.762,0,5.524,0,9.042,0
		c-2.027,5.164-4.216,9.784-6.771,14.222c-0.498-0.225-0.997-0.449-1.495-0.674c1.705-3.737,3.41-7.476,5.232-11.472
		c-2.237-0.286-4.17-0.532-6.103-0.78C663.928,1040.982,663.959,1040.551,663.99,1040.118z"/>
	<path fill-rule="evenodd" clip-rule="evenodd" fill="#D6D7DC" d="M467.852,1045.991c-5.4-0.122-6.805,0.597-6.768,3.047
		c0.038,2.509,1.539,3.178,6.527,2.906c-2.378,2.442-4.745,2.755-6.907,0.909c-2.128-1.816-2.383-5.049-0.562-7.14
		C462.09,1043.478,464.296,1043.455,467.852,1045.991z"/>
	<path fill-rule="evenodd" clip-rule="evenodd" fill="#D6D7DC" d="M533.007,1051.831c-3.265,2.723-5.699,2.819-7.778,0.552
		c-1.745-1.903-1.73-4.889,0.033-6.787c2.036-2.192,4.327-2.137,7.069,0.171c-5.121,0.265-6.56,1.002-6.213,3.442
		C526.739,1053.582,530.337,1051.497,533.007,1051.831z"/>
	<path fill-rule="evenodd" clip-rule="evenodd" fill="#D6D7DC" d="M557.695,1052.064c-2.82,2.465-5.419,2.589-7.464,0.357
		c-1.735-1.895-1.739-4.91-0.009-6.812c1.992-2.189,4.312-2.141,7.12,0.148c-5.064,0.271-6.405,1.005-6.257,3.422
		C551.232,1051.568,552.393,1052.074,557.695,1052.064z"/>
	<path fill-rule="evenodd" clip-rule="evenodd" fill="#252733" d="M213.513,1028.694c1.914,0.484,3.478,0.88,4.772,1.208
		c0.968,1.735,1.968,3.529,3.334,5.98c-1.931,0.682-4.207,1.484-6.943,2.451C214.273,1034.989,213.918,1032.052,213.513,1028.694z
		 M216.618,1035.824c0.29-0.074,0.579-0.148,0.868-0.222c-0.306-0.941-0.611-1.882-0.917-2.823
		c-0.202,0.062-0.403,0.123-0.604,0.184C216.183,1033.917,216.401,1034.87,216.618,1035.824z"/>
	<path fill-rule="evenodd" clip-rule="evenodd" fill="#E7E7E9" d="M650.111,1053.847c-2.238,0-4.013,0-6.507,0
		c3.575-3.087,2.025-6.718,2.356-10.11c-0.955,0-1.816,0-3.028,0c1.291-1.695,2.33-3.06,3.935-5.167
		C649.212,1044.354,646.066,1049.643,650.111,1053.847z"/>
	<path fill-rule="evenodd" clip-rule="evenodd" fill="#DBDDE0" d="M506.522,1042.426c1.162,1.286,1.911,2.114,2.723,3.012
		c-2.046,2.727-1.912,4.658,0.664,8.686c-1.127-0.514-2.933-0.768-3.249-1.593c-0.849-2.212-1.239-4.654-1.435-7.035
		C505.146,1044.529,506.046,1043.484,506.522,1042.426z"/>
	<path fill-rule="evenodd" clip-rule="evenodd" fill="#E0E1E4" d="M473.986,1045.437c-2.751,2.745-2.702,4.112-0.411,8.834
		c-1.086-0.688-3.027-1.292-3.106-2.081c-0.314-3.156-2.245-6.439,0.222-9.86C471.782,1043.359,472.767,1044.287,473.986,1045.437z"
		/>
	<path fill-rule="evenodd" clip-rule="evenodd" fill="#E7E7E9" d="M493.018,1044.533c-4.667,1.975-2.233,6.485-3.6,9.52
		c-1.763-2.451-1.771-2.522-1.219-9.52C489.82,1044.533,491.419,1044.533,493.018,1044.533z"/>
	<path fill-rule="evenodd" clip-rule="evenodd" fill="none" d="M491.699,880.885c-2.289-0.295-4.572-0.662-6.869-0.87
		c-7.397-0.671-14.802-1.283-22.203-1.917c-0.331-0.028-0.664-0.052-0.996-0.065c-8.616-0.345-17.23-0.764-25.85-1.014
		c-13.947-0.406-27.896-0.805-41.846-1.02c-25.778-0.398-51.558-0.803-77.338-0.916c-11.447-0.05-22.903,0.491-34.346,0.967
		c-12.906,0.537-25.807,1.227-38.702,1.991c-9.739,0.578-19.464,1.379-29.196,2.08c4.347-22.689,8.639-45.391,13.053-68.067
		c7.496-38.512,15.066-77.009,22.612-115.511c0.41-2.093,0.879-4.175,1.354-6.423c67.735,0,135.294,0,203.267,0
		c1.785,9.074,3.582,18.16,5.359,27.25c9.892,50.579,19.783,101.158,29.655,151.741C490.418,873.02,491.021,876.959,491.699,880.885
		z"/>
	<path fill-rule="evenodd" clip-rule="evenodd" fill="#FDDF7E" d="M227.501,644.208c-2.978,0.142-5.957,0.43-8.932,0.398
		c-12.157-0.126-24.363,0.292-36.458-0.67c-26.5-2.107-48.998-23.47-53.216-49.774c-0.604-3.766-0.976-7.612-0.979-11.421
		c-0.062-59.659-0.105-119.319-0.02-178.979c0.042-28.994,18.651-53.082,46.326-60.035c4.466-1.122,9.189-1.62,13.802-1.677
		c13.156-0.159,26.315,0.058,39.474,0.126c-0.029,1.164-0.084,2.328-0.084,3.491c-0.003,96.687-0.003,193.372,0.002,290.059
		C227.416,638.554,227.472,641.381,227.501,644.208z"/>
	<path fill-rule="evenodd" clip-rule="evenodd" fill="#03ACEC" d="M227.501,644.208c-0.03-2.827-0.085-5.654-0.085-8.481
		c-0.005-96.687-0.005-193.372-0.002-290.059c0-1.163,0.055-2.327,0.084-3.491c6.762-0.11,13.523-0.304,20.286-0.313
		c9.748-0.014,19.496,0.104,29.244,0.166c-0.009,100.825-0.018,201.65-0.027,302.475c-16.216,0.063-32.433,0.13-48.649,0.17
		C228.069,644.675,227.785,644.37,227.501,644.208z"/>
	<path fill-rule="evenodd" clip-rule="evenodd" fill="#A7CD39" d="M277.001,644.504c0.009-100.824,0.018-201.649,0.027-302.475
		c16.581-0.001,33.162-0.001,49.744-0.002c0.023,1.164,0.068,2.328,0.068,3.492c0.003,98.341,0.004,196.682,0,295.021
		c0,1.33-0.062,2.66-0.096,3.99C310.162,644.522,293.582,644.514,277.001,644.504z"/>
	<path fill-rule="evenodd" clip-rule="evenodd" fill="#EB1B25" d="M425.868,643.877c-16.584,0.213-33.167,0.425-49.75,0.637
		c-0.015-1.5-0.042-2.999-0.042-4.499c-0.002-97.158-0.002-194.317,0.003-291.476c0-2.165,0.063-4.331,0.097-6.496
		c15.146-0.007,30.295-0.035,45.442,0.017c1.452,0.005,2.903,0.51,4.355,0.782c0.002,98.849,0.005,197.697,0.002,296.546
		C425.976,640.885,425.905,642.381,425.868,643.877z"/>
	<path fill-rule="evenodd" clip-rule="evenodd" fill="#AF1F8D" d="M376.176,342.043c-0.033,2.165-0.097,4.331-0.097,6.496
		c-0.005,97.158-0.005,194.317-0.003,291.476c0,1.5,0.027,2.999,0.042,4.499c-8.645,0.098-17.29,0.264-25.935,0.271
		c-7.813,0.007-15.627-0.161-23.441-0.253c0.034-1.33,0.096-2.66,0.096-3.99c0.004-98.34,0.004-196.681,0-295.021
		c0-1.164-0.044-2.328-0.068-3.492C343.239,342.032,359.707,342.037,376.176,342.043z"/>
	<path fill-rule="evenodd" clip-rule="evenodd" fill="#2E3191" d="M425.868,643.877c0.037-1.496,0.107-2.992,0.107-4.489
		c0.003-98.849,0-197.697-0.002-296.546c10.518,0.697,19.578,5.238,27.698,11.438c16.066,12.265,24.299,28.755,24.331,49.005
		c0.096,60.16,0.073,120.32,0.018,180.48c-0.028,29.621-21.858,55.187-51.156,60.135C426.543,643.953,426.2,643.888,425.868,643.877
		z"/>
	<path fill-rule="evenodd" clip-rule="evenodd" fill="none" d="M564.832,888.976c-11.254-1.339-22.516-2.621-33.761-4.036
		c-7.001-0.882-13.977-1.964-20.963-2.956c-1.683-15.882-3.399-31.761-5.038-47.647c-2.596-25.159-5.151-50.323-7.703-75.487
		c-2.312-22.812-4.597-45.628-6.92-68.712c8.115,0,15.887,0,24.074,0c2.418,9.374,4.89,18.812,7.287,28.269
		C536.02,774.45,550.214,830.5,564.404,886.55C564.605,887.344,564.692,888.167,564.832,888.976z"/>
	<path fill-rule="evenodd" clip-rule="evenodd" fill="none" d="M195.832,881.976c-18.181,2.037-36.361,4.073-54.542,6.11
		c6.005-24.026,11.97-48.063,18.024-72.077c10.2-40.462,20.456-80.909,30.694-121.361c0.366-1.447,0.789-2.88,1.242-4.526
		c7.933,0,15.864,0,24.222,0c-0.956,9.792-1.854,19.351-2.827,28.901c-1.854,18.22-3.759,36.435-5.625,54.653
		c-2.545,24.844-5.062,49.69-7.617,74.534C198.246,859.469,197.024,870.721,195.832,881.976z"/>
	<path fill-rule="evenodd" clip-rule="evenodd" fill="none" d="M517.852,375.603c0.087-18.802,15.309-33.799,34.202-33.699
		c18.674,0.1,33.991,15.646,33.763,34.269c-0.23,18.728-15.607,33.848-34.332,33.759
		C532.799,409.842,517.765,394.497,517.852,375.603z M575.798,393.129c-1.639-2.463-2.713-4.703-4.339-6.421
		c-9.943-10.501-20.011-20.884-30.04-31.303c-0.576-0.598-1.136-1.225-1.78-1.742c-2.939-2.361-6.538-2.265-9.01,0.202
		c-2.277,2.272-2.55,5.862-0.567,8.65c0.668,0.94,1.516,1.759,2.32,2.596c9.794,10.184,19.591,20.364,29.402,30.531
		c0.92,0.953,1.817,2.325,2.942,2.594c2.121,0.508,4.724,1.075,6.525,0.272C573.045,397.709,574.101,395.256,575.798,393.129z"/>
	<path fill-rule="evenodd" clip-rule="evenodd" fill="none" d="M517.844,460.947c0.049-18.758,15.338-33.947,34.094-33.872
		c18.632,0.074,33.999,15.587,33.88,34.2c-0.119,18.729-15.443,33.877-34.209,33.814
		C532.786,495.027,517.795,479.868,517.844,460.947z M541.846,489.984c2.357-0.124,4.075-2.164,5.461-4.835
		c6.812-13.127,13.717-26.206,20.511-39.342c0.742-1.434,1.282-3.103,1.399-4.699c0.201-2.761-1.256-4.875-3.772-5.895
		c-2.638-1.069-5.321-0.818-7.351,1.409c-0.983,1.08-1.628,2.493-2.32,3.811c-6.497,12.357-12.975,24.725-19.443,37.097
		c-0.692,1.325-1.467,2.646-1.9,4.061C533.12,485.868,536.515,490.174,541.846,489.984z"/>
	<path fill-rule="evenodd" clip-rule="evenodd" fill="#EDEDED" d="M551.618,582.233c-10.494,0-20.987,0.003-31.481-0.004
		c-1.164-0.001-2.555,0.325-3.435-0.191c-1.122-0.657-2.504-2.001-2.532-3.082c-0.03-1.108,1.219-2.629,2.317-3.276
		c1.022-0.603,2.583-0.374,3.906-0.375c20.821-0.014,41.643-0.008,62.464,0.009c1.326,0.001,2.933-0.312,3.906,0.309
		c1.205,0.769,2.47,2.308,2.589,3.615c0.08,0.886-1.624,2.231-2.804,2.837c-0.934,0.479-2.283,0.165-3.448,0.166
		c-10.494,0.006-20.988,0.004-31.482,0.004C551.618,582.24,551.618,582.236,551.618,582.233z"/>
	<path fill-rule="evenodd" clip-rule="evenodd" fill="none" d="M552.259,605.171c10.157-0.003,20.315-0.007,30.473,0.002
		c1.33,0.001,2.851-0.32,3.94,0.21c1.172,0.571,2.784,2.061,2.684,2.985c-0.139,1.284-1.503,2.695-2.709,3.515
		c-0.815,0.555-2.26,0.222-3.424,0.223c-20.981,0.007-41.963,0.01-62.944,0c-4.591-0.002-6.617-1.16-6.235-3.715
		c0.567-3.801,3.634-3.203,6.244-3.208C530.943,605.162,541.602,605.174,552.259,605.171z"/>
	<path fill-rule="evenodd" clip-rule="evenodd" fill="none" d="M551.652,634.922c10.488,0.002,20.977,0,31.465,0.005
		c1.164,0,2.6-0.379,3.43,0.158c1.223,0.792,2.623,2.171,2.786,3.449c0.12,0.942-1.461,2.344-2.577,3.115
		c-0.692,0.479-1.935,0.203-2.93,0.203c-21.309,0.007-42.618,0.006-63.928,0.001c-0.996-0.001-2.273,0.316-2.927-0.173
		c-1.188-0.888-2.794-2.302-2.751-3.439c0.042-1.127,1.73-2.707,3.017-3.141c1.649-0.556,3.617-0.178,5.448-0.179
		C532.342,634.917,541.997,634.92,551.652,634.922z"/>
	<path fill-rule="evenodd" clip-rule="evenodd" fill="none" d="M552.002,597.071c-10.494,0-20.988,0.001-31.482-0.001
		c-1.166,0-2.505,0.343-3.454-0.115c-1.185-0.572-2.895-1.854-2.849-2.75c0.068-1.315,1.275-2.835,2.416-3.737
		c0.75-0.593,2.238-0.316,3.396-0.317c21.155-0.015,42.311-0.013,63.466-0.014c0.5,0,1,0.002,1.499-0.005
		c2.481-0.036,4.453,0.923,4.478,3.573c0.025,2.75-2.004,3.412-4.487,3.399c-10.993-0.055-21.988-0.023-32.982-0.023
		C552.002,597.078,552.002,597.074,552.002,597.071z"/>
	<path fill-rule="evenodd" clip-rule="evenodd" fill="none" d="M551.499,626.977c-10.32-0.001-20.64,0.005-30.959-0.007
		c-1.328-0.002-2.878,0.313-3.923-0.255c-1.127-0.613-2.452-2.094-2.452-3.196c-0.001-1.109,1.329-2.521,2.44-3.23
		c0.846-0.539,2.261-0.223,3.423-0.224c21.138-0.008,42.276-0.011,63.415-0.002c4.393,0.002,6.101,0.986,6.094,3.419
		c-0.007,2.435-1.78,3.482-6.081,3.489C572.804,626.988,562.151,626.977,551.499,626.977z"/>
	<path fill-rule="evenodd" clip-rule="evenodd" fill="none" d="M532.139,530.979c-0.079,5.104-4.108,9.099-9.202,9.121
		c-5.303,0.023-9.462-4.198-9.356-9.498c0.101-5.047,4.26-9.197,9.237-9.217C528.005,521.365,532.221,525.704,532.139,530.979z"/>
	<path fill-rule="evenodd" clip-rule="evenodd" fill="none" d="M551.831,540.111c-5.247,0.027-9.6-4.323-9.499-9.495
		c0.095-4.893,4.445-9.187,9.353-9.23c5.179-0.048,9.477,4.341,9.382,9.58C560.974,536.065,556.915,540.085,551.831,540.111z"/>
	<path fill-rule="evenodd" clip-rule="evenodd" fill="none" d="M589.991,530.638c0.063,5.271-4.185,9.522-9.466,9.473
		c-5.016-0.047-9.208-4.182-9.307-9.177c-0.099-5.059,4.439-9.616,9.526-9.567C585.705,521.413,589.932,525.652,589.991,530.638z"/>
	<path fill-rule="evenodd" clip-rule="evenodd" fill="#1A1B2C" d="M171.961,1044.82c0.072,4.098-2.086,6.981-5.313,7.1
		c-3.263,0.118-5.558-2.648-5.616-6.77c-0.059-4.153,2.07-7.016,5.275-7.094C169.597,1037.976,171.889,1040.717,171.961,1044.82z"/>
	<path fill-rule="evenodd" clip-rule="evenodd" fill="#161728" d="M110.94,1044.906c0.062,4.889-2.538,8.074-6.694,8.206
		c-4.288,0.135-7.016-2.79-7.178-7.697c-0.168-5.096,2.614-8.511,6.912-8.484C108.159,1036.956,110.88,1040.074,110.94,1044.906z"/>
	<path fill-rule="evenodd" clip-rule="evenodd" fill="#161728" d="M64.125,1044.153c-2.198,0-3.999,0-5.799,0
		c-1.633,0-3.267,0-4.919,0c0.318-4.925,1.919-7.068,5.171-7.231C62.035,1036.747,63.536,1038.556,64.125,1044.153z"/>
	<path fill-rule="evenodd" clip-rule="evenodd" fill="#1A1B2C" d="M659.912,1048.034c-0.078,0.302-0.153,1.539-0.724,2.475
		c-0.434,0.711-1.503,1.436-2.278,1.424c-0.771-0.012-1.835-0.774-2.213-1.499c-0.506-0.97-0.626-2.217-0.644-3.35
		c-0.033-2.158-0.125-4.553,2.724-5.094C658.773,1041.611,659.99,1043.735,659.912,1048.034z"/>
	<path fill-rule="evenodd" clip-rule="evenodd" fill="#1A1B2C" d="M614.928,1048.025c-0.088,0.327-0.176,1.562-0.751,2.494
		c-0.438,0.709-1.504,1.429-2.277,1.416c-0.763-0.013-1.814-0.783-2.189-1.507c-0.505-0.973-0.637-2.216-0.654-3.348
		c-0.033-2.154-0.141-4.561,2.726-5.081C613.796,1041.635,615.008,1043.751,614.928,1048.025z"/>
	<path fill-rule="evenodd" clip-rule="evenodd" fill="#1A1B2C" d="M564.262,1053.608c-1.555-2.188-2.959-3.315-3.023-4.515
		c-0.055-1.019,1.238-2.697,2.288-3.059c1.865-0.643,3.351,0.738,3.242,2.602C566.691,1049.949,565.534,1051.199,564.262,1053.608z"
		/>
	<path fill-rule="evenodd" clip-rule="evenodd" fill="#1A1B2C" d="M521.216,1049.057c-2.065,1.433-3.179,2.791-4.438,2.944
		c-2.003,0.244-3.066-1.506-2.605-3.262c0.292-1.114,1.803-2.716,2.695-2.67C518.063,1046.13,519.19,1047.57,521.216,1049.057z"/>
	<path fill-rule="evenodd" clip-rule="evenodd" fill="#1A1B2C" d="M480.817,1044.415c1.487,2.23,2.873,3.414,2.897,4.625
		c0.021,1.011-1.387,2.655-2.457,2.951c-1.844,0.509-3.331-0.853-3.108-2.764C478.302,1047.92,479.478,1046.731,480.817,1044.415z"
		/>
	<path fill-rule="evenodd" clip-rule="evenodd" fill="#121324" d="M216.618,1035.824c-0.217-0.954-0.435-1.907-0.653-2.861
		c0.201-0.061,0.403-0.122,0.604-0.184c0.305,0.941,0.611,1.882,0.917,2.823C217.197,1035.676,216.908,1035.75,216.618,1035.824z"/>
	<path fill-rule="evenodd" clip-rule="evenodd" fill="#060606" d="M575.798,393.129c-1.697,2.127-2.753,4.58-4.546,5.38
		c-1.802,0.803-4.404,0.235-6.525-0.272c-1.125-0.269-2.022-1.641-2.942-2.594c-9.812-10.167-19.608-20.348-29.402-30.531
		c-0.805-0.837-1.652-1.655-2.32-2.596c-1.982-2.788-1.71-6.378,0.567-8.65c2.472-2.467,6.07-2.563,9.01-0.202
		c0.645,0.518,1.204,1.145,1.78,1.742c10.029,10.419,20.097,20.802,30.04,31.303C573.085,388.426,574.159,390.666,575.798,393.129z"
		/>
	<path fill-rule="evenodd" clip-rule="evenodd" fill="#070707" d="M541.846,489.984c-5.331,0.189-8.726-4.116-7.416-8.394
		c0.434-1.415,1.208-2.735,1.9-4.061c6.469-12.372,12.946-24.739,19.443-37.097c0.692-1.317,1.337-2.73,2.32-3.811
		c2.029-2.228,4.713-2.479,7.351-1.409c2.517,1.02,3.974,3.134,3.772,5.895c-0.117,1.597-0.657,3.266-1.399,4.699
		c-6.794,13.136-13.699,26.215-20.511,39.342C545.921,487.82,544.203,489.86,541.846,489.984z"/>
</g>
</svg>
